<?xml version="1.0" encoding="utf-8"?>
<!-- Generator: Adobe Illustrator 21.0.2, SVG Export Plug-In . SVG Version: 6.00 Build 0)  -->
<svg version="1.1" id="Calque_1" xmlns="http://www.w3.org/2000/svg" xmlns:xlink="http://www.w3.org/1999/xlink" x="0px" y="0px"
	 viewBox="0 0 611 166" style="enable-background:new 0 0 611 166;" xml:space="preserve">
<style type="text/css">
	.st0{fill:#FFFFFF;}
	.st1{fill:#00BDFF;}
	.st2{fill:#E51435;}
	.st3{enable-background:new    ;}
</style>
<g>
	<path class="st0" d="M91.3,86.9v-3c0-0.2-0.1-0.3-0.2-0.4L88.4,82c-0.1-0.1-0.3-0.1-0.4,0l-2.6,1.5c-0.1,0.1-0.2,0.2-0.2,0.4v3
		c0,0.2,0.1,0.3,0.2,0.4l2.6,1.5c0.1,0.1,0.3,0.1,0.4,0l2.6-1.5C91.2,87.2,91.3,87.1,91.3,86.9z"/>
	<g>
		<g>
			<path class="st1" d="M126.2,102.4v-34c0-3.1-1.7-5.9-4.3-7.4l-1.7-1L92,43.7c-1.2-0.5-2.4-0.8-3.7-0.8c-1.5,0-3,0.3-4.3,1.1
				l-8.5,4.9L53.4,61.6c-1.7,1.3-2.8,3.1-3.2,5v37.5c0.4,2,1.5,3.8,3.1,5L84,126.9c1.3,0.6,2.7,1,4.1,1c1.4,0,2.7-0.3,4-0.9
				l30.7-17.8C124.9,107.6,126.2,105.1,126.2,102.4z"/>
			<circle class="st2" cx="110.5" cy="45.1" r="12.2"/>
			<g>
				<path class="st0" d="M124.5,56.5l-1.8-1c-1.2,1.4-2.6,2.6-4.2,3.5l3.4,2c2.6,1.5,4.3,4.3,4.3,7.4v34c0,3-1.6,5.8-4.3,7.4
					l-29.5,17c-1.3,0.8-2.8,1.1-4.3,1.1s-2.9-0.4-4.3-1.1l-29.5-17c-2.6-1.5-4.3-4.3-4.3-7.4v-34c0-3,1.6-5.8,4.3-7.4L84,44
					c1.3-0.8,2.8-1.1,4.3-1.1s2.9,0.4,4.3,1.1l1.9,1.1c0-1.9,0.4-3.7,1-5.4L95,39.5c-2.1-1.2-4.4-1.8-6.8-1.8s-4.8,0.6-6.8,1.8
					l-29.5,17c-4.2,2.4-6.8,7-6.8,11.9v34c0,4.9,2.6,9.4,6.8,11.9l29.5,17c2.1,1.2,4.4,1.8,6.8,1.8s4.8-0.6,6.8-1.8l29.5-17
					c4.2-2.4,6.8-7,6.8-11.9v-34C131.4,63.5,128.7,59,124.5,56.5z"/>
			</g>
		</g>
		<g>
			<path class="st0" d="M112.5,51.8h-2.1v-8.6c0-1,0-1.8,0.1-2.4c-0.1,0.1-0.3,0.3-0.5,0.5s-0.9,0.7-2,1.7l-1.1-1.4l3.9-3.1h1.8
				v13.3H112.5z"/>
		</g>
	</g>
	<path class="st0" d="M119.7,88.8c-0.1-0.5-0.4-0.8-0.8-1.1c-0.4-0.2-0.9-0.3-1.3-0.2l-15,4l-4-2.3v-7.8l4-2.3l15,4
		c0.8,0.2,1.9-0.3,2.2-1.2c0.2-0.9-0.3-1.9-1.2-2.1l-11.7-3.1l11.2-6.5c0.8-0.5,1.1-1.5,0.6-2.4c-0.5-0.8-1.6-1.1-2.4-0.6L105,73.7
		l3.1-11.7c0.2-0.9-0.3-1.9-1.2-2.1c-0.9-0.3-1.9,0.3-2.1,1.2l-4,15l-4,2.3L90,74.5v-4.6l11-11c0.3-0.3,0.5-0.8,0.5-1.2
		c0-0.5-0.2-0.9-0.5-1.2s-0.8-0.5-1.2-0.5l0,0c-0.5,0-0.9,0.2-1.2,0.5L90,65V52c0-1-0.8-1.7-1.7-1.7c-1,0-1.7,0.8-1.7,1.7v13
		l-8.5-8.5c-0.7-0.7-1.8-0.7-2.5,0s-0.7,1.8,0,2.5l11,11v4.6l-6.8,3.9l-4-2.3l-4-15c-0.3-0.9-1.2-1.5-2.1-1.2
		c-0.4,0.1-0.8,0.4-1.1,0.8c-0.2,0.4-0.3,0.9-0.2,1.3l3.1,11.7l-11.2-6.5c-0.4-0.2-0.9-0.3-1.3-0.2c-0.5,0.1-0.8,0.4-1.1,0.8
		c-0.2,0.4-0.3,0.9-0.2,1.3c0.1,0.5,0.4,0.8,0.8,1.1l11.2,6.5l-11.7,3c-0.4,0.1-0.8,0.4-1.1,0.8c-0.2,0.4-0.3,0.9-0.2,1.3
		c0.2,0.8,0.9,1.3,1.7,1.3c0.2,0,0.3,0,0.5-0.1l15-4l4,2.3v7.9l-4,2.3l-15-4c-0.9-0.2-1.9,0.3-2.1,1.2c-0.3,1,0.2,1.9,1.2,2.2
		l11.7,3.1l-11.2,6.5c-0.8,0.5-1.1,1.6-0.6,2.4s1.6,1.1,2.4,0.6l11.2-6.5l-3.1,11.7c-0.2,0.9,0.3,1.9,1.2,2.1
		c0.8,0.3,1.9-0.3,2.2-1.2l4-15l4-2.3l6.8,3.9v4.6l-11,11c-0.3,0.3-0.5,0.8-0.5,1.2c0,0.5,0.2,0.9,0.5,1.2c0.7,0.7,1.8,0.7,2.5,0
		l8.5-8.5v13c0,1,0.8,1.7,1.7,1.7s1.7-0.8,1.7-1.7v-13l8.5,8.5c0.7,0.7,1.8,0.7,2.5,0c0.3-0.3,0.5-0.8,0.5-1.2
		c0-0.5-0.2-0.9-0.5-1.2l-11-11v-4.6l6.8-3.9l4,2.3l4,15c0.2,0.8,0.9,1.3,1.7,1.3c0.1,0,0.3,0,0.5-0.1c0.5-0.1,0.8-0.4,1.1-0.8
		c0.2-0.4,0.3-0.9,0.2-1.3L105,97.1l11.2,6.5c0.8,0.5,1.9,0.2,2.4-0.6c0.5-0.8,0.2-1.9-0.6-2.4l-11.2-6.5l11.7-3.1
		c0.4-0.1,0.8-0.4,1.1-0.8C119.7,89.8,119.8,89.3,119.7,88.8z M99,56.9L99,56.9L99,56.9L99,56.9z M94.7,90L89,93.4
		c-0.5,0.3-1.1,0.3-1.5,0L81.7,90c-0.5-0.3-0.8-0.8-0.8-1.3v-6.6c0-0.5,0.3-1,0.8-1.3l5.8-3.3c0.5-0.3,1.1-0.3,1.5,0l5.8,3.3
		c0.5,0.3,0.8,0.8,0.8,1.3v6.6C95.5,89.3,95.2,89.8,94.7,90z"/>
</g>
<g class="st3">
	<path class="st0" d="M184.8,62h8.4c0.6,0,1,0.5,1,1v44.9c0,0.6-0.5,1-1,1h-8.9c-0.3,0-0.6-0.2-0.8-0.4l-22.1-29v28.4
		c0,0.6-0.5,1-1,1h-8.4c-0.6,0-1-0.5-1-1V63c0-0.6,0.5-1,1-1h8.3c0.3,0,0.6,0.2,0.8,0.4l22.7,29.8V63C183.8,62.4,184.2,62,184.8,62z
		"/>
	<path class="st0" d="M239.8,63v7.3c0,0.6-0.5,1-1,1h-22.4V81h20c0.6,0,1,0.5,1,1v6.9c0,0.6-0.5,1-1,1h-20v9.7h23.1c0.6,0,1,0.5,1,1
		v7.2c0,0.6-0.5,1-1,1h-32.6c-0.6,0-1-0.5-1-1V63c0-0.6,0.5-1,1-1h31.8C239.3,62,239.8,62.4,239.8,63z"/>
	<path class="st0" d="M251.4,62h8.4c0.6,0,1,0.5,1,1v44.9c0,0.6-0.5,1-1,1h-8.4c-0.6,0-1-0.5-1-1V63C250.3,62.4,250.8,62,251.4,62z"
		/>
	<path class="st0" d="M304.1,85h8.5c0.6,0,1,0.5,1,1v15.6c-4.7,5.2-11.1,7.8-19.4,7.8c-6.9,0-12.7-2.3-17.4-6.9
		c-4.7-4.6-7-10.3-7-17.3c0-7,2.4-12.8,7.2-17.4c4.8-4.7,10.5-7,17.3-7c6.4,0,12,2,16.8,6c0.4,0.3,0.5,1,0.2,1.4l-4.3,6.2
		c-0.3,0.5-1,0.5-1.5,0.2c-1.8-1.4-3.4-2.5-4.9-3.1c-1.8-0.7-3.7-1-5.7-1c-4,0-7.3,1.4-10.1,4.1c-2.7,2.7-4.1,6.3-4.1,10.7
		c0,4.4,1.3,8,3.9,10.7c2.6,2.7,5.7,4,9.4,4c3.6,0,6.7-0.7,9.1-2.1V86.1C303.1,85.5,303.6,85,304.1,85z"/>
	<path class="st0" d="M357.3,63v7.3c0,0.6-0.5,1-1,1h-22.4V81h20c0.6,0,1,0.5,1,1v6.9c0,0.6-0.5,1-1,1h-20v9.7H357c0.6,0,1,0.5,1,1
		v7.2c0,0.6-0.5,1-1,1h-32.6c-0.6,0-1-0.5-1-1V63c0-0.6,0.5-1,1-1h31.8C356.8,62,357.3,62.4,357.3,63z"/>
	<path class="st0" d="M368.9,107.8c-1.1-1.1-1.7-2.5-1.7-4.2c0-1.7,0.6-3.1,1.7-4.2c1.1-1.1,2.5-1.7,4.2-1.7c1.7,0,3.1,0.6,4.2,1.7
		c1.1,1.1,1.7,2.5,1.7,4.2c0,1.7-0.6,3.1-1.7,4.2c-1.1,1.1-2.5,1.7-4.2,1.7C371.4,109.5,370,108.9,368.9,107.8z"/>
	<path class="st0" d="M404.1,71.1v36.9c0,0.6-0.5,1-1,1h-8.4c-0.6,0-1-0.5-1-1V71.1h-12.3c-0.6,0-1-0.5-1-1v-7c0-0.6,0.5-1,1-1h35
		c0.6,0,1,0.5,1,1v7c0,0.6-0.5,1-1,1H404.1z"/>
	<path class="st0" d="M458.1,63v7.3c0,0.6-0.5,1-1,1h-22.4V81h20c0.6,0,1,0.5,1,1v6.9c0,0.6-0.5,1-1,1h-20v9.7h23.1c0.6,0,1,0.5,1,1
		v7.2c0,0.6-0.5,1-1,1h-32.6c-0.6,0-1-0.5-1-1V63c0-0.6,0.5-1,1-1h31.8C457.7,62,458.1,62.4,458.1,63z"/>
	<path class="st0" d="M489.4,99.7c4.8,0,8.8-1.8,11.9-5.3c0.4-0.4,1.1-0.5,1.5-0.1l5.3,5.4c0.4,0.4,0.4,1.1,0,1.5
		c-5.2,5.5-11.2,8.3-18.2,8.3c-7.2,0-13.2-2.3-17.9-6.9c-4.7-4.6-7-10.3-7-17.3c0-7,2.4-12.8,7.2-17.4c4.8-4.7,10.6-7,17.5-7
		c7.4,0,13.6,2.7,18.7,8.1c0.4,0.4,0.4,1,0,1.4l-5.1,5.8c-0.4,0.5-1.1,0.4-1.5,0c-3.2-3.5-7-5.3-11.6-5.3c-3.9,0-7.3,1.3-10.1,3.9
		c-2.8,2.6-4.2,6.1-4.2,10.4c0,4.4,1.3,7.9,4,10.5C482.4,98.4,485.6,99.7,489.4,99.7z"/>
	<path class="st0" d="M546.6,62h8.4c0.6,0,1,0.5,1,1v44.9c0,0.6-0.5,1-1,1h-8.4c-0.6,0-1-0.5-1-1V90.5h-18.7v17.5c0,0.6-0.5,1-1,1
		h-8.4c-0.6,0-1-0.5-1-1V63c0-0.6,0.5-1,1-1h8.4c0.6,0,1,0.5,1,1v18.6h18.7V63C545.6,62.4,546.1,62,546.6,62z"/>
</g>
</svg>
