<svg xmlns="http://www.w3.org/2000/svg" viewBox="-6239 9584 24.163 20.5">
  <g id="Groupe_2639" data-name="Groupe 2639" transform="translate(-6239 9583.9)">
    <path id="Tracé_4517" data-name="Tracé 4517" d="M8.016,32.931a.916.916,0,1,1,.916-.916A.854.854,0,0,1,8.016,32.931Zm0-1.017a.109.109,0,0,0-.1.1.076.076,0,1,0,.153,0C8.117,31.965,8.067,31.914,8.016,31.914Z" transform="translate(-3.488 -15.231)"/>
    <path id="Tracé_4518" data-name="Tracé 4518" d="M15.716,38.631a.916.916,0,1,1,.916-.916A.912.912,0,0,1,15.716,38.631Zm0-1.017a.109.109,0,0,0-.1.1.076.076,0,0,0,.153,0C15.817,37.665,15.767,37.614,15.716,37.614Z" transform="translate(-7.271 -18.031)"/>
    <path id="Tracé_4519" data-name="Tracé 4519" d="M23.416,32.931a.916.916,0,1,1,.916-.916A.912.912,0,0,1,23.416,32.931Zm0-1.017a.109.109,0,0,0-.1.1.076.076,0,1,0,.153,0A.178.178,0,0,0,23.416,31.914Z" transform="translate(-11.055 -15.231)"/>
    <path id="Tracé_4520" data-name="Tracé 4520" d="M31.016,38.631a.916.916,0,1,1,.916-.916A.912.912,0,0,1,31.016,38.631Zm0-1.017a.109.109,0,0,0-.1.1.076.076,0,0,0,.153,0C31.117,37.665,31.067,37.614,31.016,37.614Z" transform="translate(-14.789 -18.031)"/>
    <path id="Tracé_4521" data-name="Tracé 4521" d="M38.716,32.931a.916.916,0,1,1,.916-.916A.912.912,0,0,1,38.716,32.931Zm0-1.017a.109.109,0,0,0-.1.1.076.076,0,0,0,.153,0C38.767,31.965,38.767,31.914,38.716,31.914Z" transform="translate(-18.572 -15.231)"/>
    <path id="Tracé_4522" data-name="Tracé 4522" d="M18.923,14.6H5.239a5.239,5.239,0,1,1,0-10.479,5.05,5.05,0,0,1,1.526.254A5.847,5.847,0,0,1,12.463.1a5.974,5.974,0,0,1,5.646,4.12,2.24,2.24,0,0,1,.814-.1,5.239,5.239,0,1,1,0,10.479ZM5.239,5.136a4.222,4.222,0,1,0,0,8.444H18.923a4.215,4.215,0,1,0-1.068-8.292.574.574,0,0,1-.407-.051.748.748,0,0,1-.254-.305,4.866,4.866,0,0,0-9.563.2c-.051.153-.1.305-.254.356a.486.486,0,0,1-.458,0A3.686,3.686,0,0,0,5.239,5.136Z"/>
  </g>
</svg>
