<?xml version="1.0" encoding="utf-8"?>
<!-- Generator: Adobe Illustrator 21.1.0, SVG Export Plug-In . SVG Version: 6.00 Build 0)  -->
<svg version="1.1" id="Layer_1" xmlns="http://www.w3.org/2000/svg" xmlns:xlink="http://www.w3.org/1999/xlink" x="0px" y="0px"
	 viewBox="0 0 64.4 27.9" style="enable-background:new 0 0 64.4 27.9;" xml:space="preserve">
<style type="text/css">
	.st0{fill:#DCF2FE;}
	.st1{fill:#00A2FF;}
</style>
<g>
	<g>
		<path class="st0" d="M9.9,20.2v3.6l4.1-1.5c0-0.3-0.1-0.6-0.1-0.9c0-0.9,0.2-1.7,0.5-2.5L9.9,20.2z"/>
		<circle class="st0" cx="21.3" cy="21.5" r="6.3"/>
		<path class="st0" d="M3.9,14.4c0.1,1.4,0.4,3.3,0.5,4.1h2l-1.1-5.4c-0.1-0.2-0.8-1.4-1.9-1.3l-0.6,1.1C3.3,13.1,3.8,13.6,3.9,14.4
			z"/>
		<polygon class="st0" points="1,27.9 8.9,26.8 8.9,24.5 8.9,19.9 8.9,19.5 1,19.5 		"/>
		<path class="st0" d="M56.7,11.4l-4,0.6l0.9,5.5c0,0,0,0,0,0l1.5,9.2h7.6C56.5,20.3,56.5,13.5,56.7,11.4z"/>
		<path class="st0" d="M46.9,15.6c-0.1-1.4-0.9-2.2-2.5-2.4l-10-1.6c-0.2,0-0.4-0.2-0.4-0.4L33,5c-0.1-0.2-0.2-0.4-0.3-0.7
			c-0.3-0.9-0.5-1.4-1-1.4l-7.4-0.8c-1.7,0-1.9,0.8-1.9,1.6l-0.7,6.4c0.8,0,1.7,0,2.6,0.3c2.9,0.8,5.2,3.1,6.8,7c0,0,0,0.1,0,0.1
			c0,0,0,0.1,0,0.1c0,0,0,0,0,0c0,0.2-0.1,0.3-0.3,0.4l-2.6,1.3c0.2,0.7,0.3,1.4,0.3,2.1c0,0.4,0,0.9-0.1,1.3h7.7
			c0.5-2.7,1.6-4.6,3.5-5.8C42.3,15.1,45.5,15.4,46.9,15.6z M25.5,7.4C25.4,7.4,25.4,7.4,25.5,7.4l0.1-2.6l4.7,0.5l0.4,3.8
			C29.4,8.5,27.3,7.4,25.5,7.4z"/>
		<circle class="st0" cx="44.5" cy="24" r="3.8"/>
	</g>
	<g>
		<path class="st1" d="M57.7,9.8c0-0.2,0-0.3-0.1-0.4c-0.1-0.1-0.3-0.2-0.4-0.1L52,10c-0.1,0-0.3,0.1-0.3,0.2
			c-0.1,0.1-0.1,0.2-0.1,0.4l0.9,5.3l-4.6-1.1c0-2-1.2-3.3-3.3-3.6l-9.6-1.5l-0.9-6c0,0,0-0.1,0-0.1c-0.1-0.2-0.2-0.4-0.3-0.7
			C33.4,2,33,0.8,31.8,0.8c0,0,0,0,0,0L24.4,0c-2.4,0-2.9,1.4-2.9,2.6l-0.7,6.4c0,0.1,0,0.1,0,0.2c-3.1,0.5-5.5,2.3-5.7,2.4
			c-0.2,0.2-0.3,0.5-0.1,0.7c0.2,0.2,0.5,0.3,0.7,0.1c0,0,4.2-3.1,8.4-2c2.6,0.7,4.6,2.9,6.2,6.4c0.1,0.2,0.3,0.3,0.5,0.3
			c0.1,0,0.1,0,0.2,0c0.3-0.1,0.4-0.4,0.3-0.7c-1.6-3.9-3.9-6.2-6.8-7C23.4,9,22.6,9,21.7,9l0.7-6.4c0-0.8,0.2-1.6,1.9-1.6l7.4,0.8
			c0.5,0,0.7,0.5,1,1.4c0.1,0.2,0.2,0.5,0.3,0.7l1,6.3c0,0.2,0.2,0.4,0.4,0.4l10,1.6c1.6,0.2,2.4,1,2.5,2.4
			c-1.3-0.2-4.6-0.5-7.2,1.2c-1.8,1.2-3,3.2-3.5,5.8h-7.7c0.1-0.4,0.1-0.8,0.1-1.3c0-4.1-3.3-7.3-7.3-7.3c-2.7,0-5,1.4-6.3,3.6
			l-5.1,1.5v-0.2c0-0.3-0.2-0.5-0.5-0.5H7.5l-1.2-5.7c0,0,0-0.1,0-0.1C5.9,10.8,4.7,9.4,3,9.7c-0.2,0-0.3,0.1-0.4,0.3l-0.9,1.7
			c-0.1,0.1-0.1,0.3,0,0.4c0,0.1,0.2,0.2,0.3,0.3c0,0,0.8,0.4,0.9,1c0.1,1.3,0.4,3.1,0.5,4H0.5c-0.3,0-0.5,0.2-0.5,0.5v9.5
			c0,0.1,0.1,0.3,0.2,0.4c0.1,0.1,0.2,0.1,0.3,0.1c0,0,0,0,0.1,0l8.8-1.3c0.2,0,0.4-0.2,0.4-0.5v-2.3l4.3-1.5
			c0.8,3.1,3.7,5.4,7.1,5.4c3.3,0,6-2.1,7-5.1h8.4c0.2,0,0.5-0.2,0.5-0.4c0.4-2.6,1.4-4.5,3.1-5.6c3-2,7-1,7.1-1l5.4,1.3l0.9,5.5
			h-4.3c-0.3-2.4-2.3-4.3-4.8-4.3c-2.7,0-4.8,2.2-4.8,4.8s2.2,4.8,4.8,4.8c2.5,0,4.5-1.9,4.8-4.3h4.5l0.5,2.8c0,0.2,0.2,0.4,0.5,0.4
			h9.3c0.2,0,0.4-0.1,0.5-0.3c0.1-0.2,0-0.4-0.1-0.5C56.4,18.3,57.7,9.9,57.7,9.8z M2.8,11.7l0.6-1.1c1.2-0.1,1.8,1.1,1.9,1.3
			l1.1,5.4h-2c-0.1-0.8-0.4-2.7-0.5-4.1C3.8,12.5,3.3,12,2.8,11.7z M8.8,18.8v4.7v2.2L1,26.9v-8.4h7.8V18.8z M13.9,20.4
			c0,0.3,0,0.6,0.1,0.9l-4.1,1.5v-3.6l4.5-1.3C14.1,18.6,13.9,19.5,13.9,20.4z M21.2,26.7c-3.5,0-6.3-2.8-6.3-6.3
			c0-3.5,2.8-6.3,6.3-6.3s6.3,2.8,6.3,6.3C27.6,23.9,24.7,26.7,21.2,26.7z M44.4,26.7c-2.1,0-3.8-1.7-3.8-3.8s1.7-3.8,3.8-3.8
			s3.8,1.7,3.8,3.8S46.5,26.7,44.4,26.7z M55,25.6l-1.5-9.2c0,0,0,0,0,0l-0.9-5.5l4-0.6c-0.2,2.1-0.2,8.9,6,15.3H55z"/>
		<path class="st1" d="M31.2,3.7c0-0.2-0.2-0.4-0.4-0.4l-5.6-0.5c-0.1,0-0.3,0-0.4,0.1c-0.1,0.1-0.2,0.2-0.2,0.3l-0.2,3.7
			c0,0.2,0.1,0.3,0.2,0.4s0.3,0.1,0.4,0.1c2.3-0.4,6,2,6,2c0.1,0.1,0.2,0.1,0.3,0.1c0.1,0,0.2,0,0.3-0.1c0.2-0.1,0.3-0.3,0.2-0.5
			L31.2,3.7z M25.4,6.3C25.4,6.3,25.4,6.3,25.4,6.3l0.1-2.6l4.7,0.5L30.6,8C29.4,7.4,27.3,6.3,25.4,6.3z"/>
	</g>
</g>
</svg>
