<?xml version="1.0" encoding="utf-8"?>
<!-- Generator: Adobe Illustrator 21.1.0, SVG Export Plug-In . SVG Version: 6.00 Build 0)  -->
<svg version="1.1" id="Layer_1" xmlns="http://www.w3.org/2000/svg" xmlns:xlink="http://www.w3.org/1999/xlink" x="0px" y="0px"
	 viewBox="0 0 47.4 40.4" style="enable-background:new 0 0 47.4 40.4;" xml:space="preserve">
<style type="text/css">
	.st0{fill:#004F7E;}
</style>
<g>
	<path class="st0" d="M8.8,31c-1,0-1.8,0.8-1.8,1.8c0,1,0.8,1.8,1.8,1.8s1.8-0.8,1.8-1.8C10.7,31.8,9.8,31,8.8,31z"/>
	<path class="st0" d="M16.5,36.7c-1,0-1.8,0.8-1.8,1.8s0.8,1.8,1.8,1.8c1,0,1.8-0.8,1.8-1.8S17.5,36.7,16.5,36.7z"/>
	<path class="st0" d="M24.1,31c-1,0-1.8,0.8-1.8,1.8c0,1,0.8,1.8,1.8,1.8c1,0,1.8-0.8,1.8-1.8C26,31.8,25.1,31,24.1,31z"/>
	<path class="st0" d="M31.8,36.7c-1,0-1.8,0.8-1.8,1.8s0.8,1.8,1.8,1.8c1,0,1.8-0.8,1.8-1.8S32.8,36.7,31.8,36.7z"/>
	<path class="st0" d="M39.4,31c-1,0-1.8,0.8-1.8,1.8c0,1,0.8,1.8,1.8,1.8s1.8-0.8,1.8-1.8C41.3,31.8,40.5,31,39.4,31z"/>
	<path class="st0" d="M37.1,8c-0.5,0-1.1,0-1.6,0.1C33.9,3.4,29.4,0,24.4,0c-5.2,0-9.8,3.5-11.2,8.4c-1-0.3-2-0.5-3-0.5
		C4.5,8-0.1,12.6-0.1,18.3s4.6,10.3,10.3,10.3h26.9c5.7,0,10.3-4.6,10.3-10.3C47.4,12.6,42.7,8,37.1,8z M37.1,26.6H10.2
		c-4.6,0-8.3-3.7-8.3-8.3S5.6,10,10.2,10c1.2,0,2.3,0.2,3.4,0.7c0.3,0.1,0.6,0.1,0.9,0c0.3-0.1,0.5-0.4,0.5-0.7c0.8-4.6,4.8-8,9.5-8
		c4.5,0,8.4,3.2,9.4,7.5c0.1,0.3,0.2,0.5,0.5,0.6c0.2,0.1,0.5,0.2,0.8,0.1c5.5-1.4,10.4,2.8,10.4,8C45.4,22.9,41.6,26.6,37.1,26.6z"
		/>
</g>
</svg>
