<?xml version="1.0" encoding="utf-8"?>
<!-- Generator: Adobe Illustrator 21.1.0, SVG Export Plug-In . SVG Version: 6.00 Build 0)  -->
<svg version="1.1" id="Layer_1" xmlns="http://www.w3.org/2000/svg" xmlns:xlink="http://www.w3.org/1999/xlink" x="0px" y="0px"
	 viewBox="0 0 512 394.5" style="enable-background:new 0 0 512 394.5;" xml:space="preserve">
<style type="text/css">
	.st0{fill:#FFFFFF;}
</style>
<title>d4</title>
<g>
	<path class="st0" d="M62,325.5v51.7c0,19.2,10.1,23.1,22.4,8.3L134,326h159.9c36.1,0,66.1-30.4,66.1-66.5V254H232
		c-44.6,0-82-37.2-82-81.8V73H66.4C30.2,73,0,101.7,0,137.9v121.6C0,294.1,27.8,323.2,62,325.5z"/>
	<path class="st0" d="M464.8,0H231.2c-25.9-0.2-47,20.7-47.2,46.6c0,0.1,0,0.2,0,0.3v126.6c0,26.1,21.1,47.6,47.2,47.6h142.2
		l65.4,77.8c12.4,14.8,22.4,11.1,22.4-8.1l-0.2-69.7h3.9c26.1,0,47.2-21.5,47.2-47.6V46.9C512,20.9,491,0,465.1,0
		C465,0,464.9,0,464.8,0z M269.2,133.3c-11.9,0-21.6-9.7-21.6-21.6s9.7-21.6,21.6-21.6s21.6,9.7,21.6,21.6l0,0
		C290.7,123.6,281.1,133.3,269.2,133.3z M352,133.3c-11.9,0-21.6-9.7-21.6-21.6s9.7-21.6,21.6-21.6s21.6,9.7,21.6,21.6l0,0
		C373.6,123.6,363.9,133.3,352,133.3z M434.8,133.3c-11.9,0-21.6-9.7-21.6-21.6s9.7-21.6,21.6-21.6s21.6,9.7,21.6,21.6c0,0,0,0,0,0
		C456.4,123.6,446.7,133.3,434.8,133.3z"/>
</g>
</svg>
