<?xml version="1.0" encoding="utf-8"?>
<!-- Generator: Adobe Illustrator 21.0.2, SVG Export Plug-In . SVG Version: 6.00 Build 0)  -->
<svg version="1.1" id="Layer_1" xmlns="http://www.w3.org/2000/svg" xmlns:xlink="http://www.w3.org/1999/xlink" x="0px" y="0px"
	 viewBox="0 0 24 24" style="enable-background:new 0 0 24 24;" xml:space="preserve">
<style type="text/css">
	.st0{fill:#FFFFFF;}
</style>
<g>
	<path class="st0" d="M17.3,6.5h-14c-0.7,0-1.3,0.6-1.3,1.3v9c0,0.7,0.6,1.3,1.3,1.3h1.4c0.1,0,0.2,0.1,0.3,0.2L6,20
		c0.2,0.3,0.5,0.5,0.8,0.5c0,0,0,0,0,0c0.3,0,0.7-0.2,0.8-0.5l1.1-1.8c0.1-0.1,0.2-0.2,0.3-0.2h8.2c0.7,0,1.3-0.6,1.3-1.3v-9
		C18.6,7.1,18,6.5,17.3,6.5z M18,16.8c0,0.4-0.3,0.7-0.7,0.7H9.1c-0.3,0-0.7,0.2-0.8,0.5l-1.1,1.8c-0.1,0.2-0.2,0.2-0.3,0.2
		c-0.1,0-0.2,0-0.3-0.2l-1-1.7c-0.2-0.3-0.5-0.5-0.9-0.5H3.3c-0.4,0-0.7-0.3-0.7-0.7v-9c0-0.4,0.3-0.7,0.7-0.7h14
		c0.4,0,0.7,0.3,0.7,0.7V16.8z"/>
	<path class="st0" d="M20.7,3.5h-14C6,3.5,5.4,4.1,5.4,4.8v0.4c0,0.2,0.1,0.3,0.3,0.3S6,5.4,6,5.2V4.8c0-0.4,0.3-0.7,0.7-0.7h14
		c0.4,0,0.7,0.3,0.7,0.7v9c0,0.4-0.3,0.7-0.7,0.7h-0.6c-0.2,0-0.3,0.1-0.3,0.3s0.1,0.3,0.3,0.3h0.6c0.7,0,1.3-0.6,1.3-1.3v-9
		C22.1,4.1,21.5,3.5,20.7,3.5z"/>
	<path class="st0" d="M15.1,9.3H5.4c-0.2,0-0.3,0.1-0.3,0.3S5.2,10,5.4,10h9.7c0.2,0,0.3-0.1,0.3-0.3C15.5,9.5,15.3,9.3,15.1,9.3z"
		/>
	<path class="st0" d="M15.1,12H5.4c-0.2,0-0.3,0.1-0.3,0.3s0.1,0.3,0.3,0.3h9.7c0.2,0,0.3-0.1,0.3-0.3C15.5,12.1,15.3,12,15.1,12z"
		/>
	<path class="st0" d="M15.1,14.7H5.4c-0.2,0-0.3,0.1-0.3,0.3s0.1,0.3,0.3,0.3h9.7c0.2,0,0.3-0.1,0.3-0.3
		C15.5,14.8,15.3,14.7,15.1,14.7z"/>
</g>
</svg>
