<?xml version="1.0" encoding="utf-8"?>
<!-- Generator: Adobe Illustrator 21.0.2, SVG Export Plug-In . SVG Version: 6.00 Build 0)  -->
<svg version="1.1"
	 id="Layer_1" xmlns:cc="http://creativecommons.org/ns#" xmlns:dc="http://purl.org/dc/elements/1.1/" xmlns:inkscape="http://www.inkscape.org/namespaces/inkscape" xmlns:rdf="http://www.w3.org/1999/02/22-rdf-syntax-ns#" xmlns:sodipodi="http://sodipodi.sourceforge.net/DTD/sodipodi-0.dtd" xmlns:svg="http://www.w3.org/2000/svg"
	 xmlns="http://www.w3.org/2000/svg" xmlns:xlink="http://www.w3.org/1999/xlink" x="0px" y="0px" viewBox="0 0 100 103"
	 style="enable-background:new 0 0 100 103;" xml:space="preserve">
<style type="text/css">
	.st0{fill:#FFFFFF;}
</style>
<g transform="translate(0,-952.36218)">
	<g transform="matrix(0.53488372,0,0,0.53488372,32.790695,485.7499)">
	</g>
	<g transform="matrix(0.53488372,0,0,0.53488372,-235.34762,517.84249)">
	</g>
	<g transform="matrix(0.53488372,0,0,0.53488372,-174.34761,553.84249)">
	</g>
	<g transform="matrix(0.3782199,0.37821991,-0.37821991,0.3782199,270.72564,719.64834)">
	</g>
</g>
<g>
	<path class="st0" d="M29.9,63c-0.3,0-0.5,0.2-0.7,0.4L24,69.5l-2.2-2.2c-0.4-0.4-1-0.4-1.4,0c-0.4,0.4-0.4,1,0,1.4l3,3
		c0.4,0.4,1,0.4,1.4,0c0,0,0,0,0.1-0.1l6-7c0.4-0.4,0.3-1-0.1-1.4C30.5,63,30.2,63,29.9,63z"/>
	<path class="st0" d="M59,54H35c-0.1,0-0.1,0-0.2,0c-0.6,0.1-1,0.5-0.9,1.1s0.5,1,1.1,0.9h24c0.6,0,1-0.4,1-1C60,54.5,59.6,54,59,54
		C59,54,59,54,59,54z"/>
	<path class="st0" d="M30.7,48.2C30.5,48,30.2,48,29.9,48c-0.3,0-0.5,0.2-0.7,0.4L24,54.5l-2.2-2.2c-0.4-0.4-1-0.4-1.4,0
		c-0.4,0.4-0.4,1,0,1.4l3,3c0.4,0.4,1,0.4,1.4,0c0,0,0,0,0.1-0.1l6-7C31.1,49.2,31.1,48.6,30.7,48.2z"/>
	<path class="st0" d="M59,39C59,39,59,39,59,39H35c-0.1,0-0.1,0-0.2,0c-0.6,0.1-1,0.5-0.9,1.1s0.5,1,1.1,0.9h24c0.6,0,1-0.4,1-1
		C60,39.5,59.6,39,59,39z"/>
	<path class="st0" d="M30.7,33.2C30.5,33,30.2,33,29.9,33c-0.3,0-0.5,0.2-0.7,0.4L24,39.5l-2.2-2.2c-0.4-0.4-1-0.4-1.4,0
		s-0.4,1,0,1.4l3,3c0.4,0.4,1,0.4,1.4,0c0,0,0,0,0.1-0.1l6-7C31.1,34.2,31.1,33.6,30.7,33.2z"/>
	<path class="st0" d="M70,57c-7.8,0-14.5,5-17,12H35c-0.1,0-0.1,0-0.2,0c-0.6,0.1-1,0.5-0.9,1.1s0.5,1,1.1,0.9h17.5
		c-0.3,1.3-0.5,2.6-0.5,4c0,2.1,0.4,4.1,1.1,6H14V9h38v13c0,0.6,0.4,1,1,1h13v29c0,0.6,0.4,1,1,1c0.6,0,1-0.4,1-1c0,0,0,0,0,0V22
		c0-0.3-0.1-0.5-0.3-0.7l-14-14C53.5,7.1,53.3,7,53,7H13c-0.1,0-0.1,0-0.2,0C12.3,7.1,12,7.5,12,8v74c0,0,0,0,0,0.1c0,0,0,0,0,0.1
		c0,0,0,0.1,0,0.1c0,0.1,0,0.1,0.1,0.2c0,0.1,0.1,0.1,0.1,0.1c0,0.1,0.1,0.1,0.1,0.2c0,0,0.1,0.1,0.1,0.1c0.1,0,0.1,0.1,0.2,0.1
		c0.1,0,0.1,0,0.2,0c0.1,0,0.1,0,0.1,0c0,0,0,0,0.1,0c0,0,0,0,0.1,0h40.8c3,5.9,9.1,10,16.1,10c9.9,0,18-8.1,18-18S79.9,57,70,57z
		 M54,10.4L64.6,21H54V10.4z M70,91c-8.8,0-16-7.1-16-16s7.1-16,16-16s16,7.1,16,16S78.8,91,70,91z"/>
	<path class="st0" d="M67.9,69.7c0.5-0.4,1.3-0.6,2.1-0.7c1.9,0,2.6,0.8,3.1,1.8c0.2,0.5,0.8,0.7,1.3,0.5s0.7-0.8,0.5-1.3
		c-0.6-1.2-1.9-2.5-3.9-2.8V65c0-0.6-0.4-1-1-1c-0.1,0-0.1,0-0.2,0C69.4,64,69,64.5,69,65v2.1c-0.8,0.1-1.7,0.5-2.3,1
		c-1,0.7-1.7,2-1.7,3.4c0,1.4,0.6,2.5,1.6,3.2s2,1,3.2,1.3c1.1,0.3,2,0.6,2.5,0.9c0.5,0.4,0.7,0.7,0.8,1.6c0,0.9-0.3,1.4-0.9,1.8
		S70.8,81,70,81c-1.9,0-2.6-0.9-3.1-1.8c-0.2-0.5-0.8-0.7-1.3-0.5c-0.5,0.2-0.7,0.8-0.5,1.3c0.6,1.2,1.9,2.5,3.9,2.8V85
		c0,0.6,0.4,1,1,1c0.6,0,1-0.4,1-1c0,0,0,0,0,0v-2.1c0.8-0.1,1.7-0.5,2.3-1c1-0.7,1.7-2,1.7-3.4c0,0,0,0,0,0c0-1.4-0.6-2.5-1.6-3.2
		s-2-1-3.2-1.3c-1.1-0.3-2-0.6-2.5-1c-0.5-0.4-0.7-0.7-0.8-1.6c0,0,0,0,0,0C67,70.6,67.3,70.1,67.9,69.7z"/>
</g>
</svg>
