<?xml version="1.0" encoding="utf-8"?>
<!-- Generator: Adobe Illustrator 21.0.2, SVG Export Plug-In . SVG Version: 6.00 Build 0)  -->
<svg version="1.1" id="Layer_1" xmlns="http://www.w3.org/2000/svg" xmlns:xlink="http://www.w3.org/1999/xlink" x="0px" y="0px"
	 viewBox="0 0 86.2 100.2" style="enable-background:new 0 0 86.2 100.2;" xml:space="preserve">
<style type="text/css">
	.st0{fill:#FFFFFF;}
	.st1{fill:#41B9EA;}
	.st2{fill:#E41D36;}
</style>
<g>
	<path class="st0" d="M46.2,54v-3c0-0.2-0.1-0.3-0.2-0.4l-2.7-1.5c-0.1-0.1-0.3-0.1-0.4,0l-2.6,1.5c-0.1,0.1-0.2,0.2-0.2,0.4v3
		c0,0.2,0.1,0.3,0.2,0.4l2.6,1.5c0.1,0.1,0.3,0.1,0.4,0l2.6-1.5C46.1,54.3,46.2,54.2,46.2,54z"/>
	<g>
		<g>
			<path class="st1" d="M81.1,69.5v-34c0-3.1-1.7-5.9-4.3-7.4l-1.7-1L46.9,10.8c-1.2-0.5-2.4-0.8-3.7-0.8c-1.5,0-3,0.3-4.3,1.1
				L30.4,16L8.3,28.7c-1.7,1.3-2.8,3.1-3.2,5v37.5c0.4,2,1.5,3.8,3.1,5L38.9,94c1.3,0.6,2.7,1,4.1,1s2.7-0.3,4-0.9l30.7-17.8
				C79.8,74.7,81.1,72.2,81.1,69.5z"/>
			<circle class="st2" cx="65.4" cy="12.2" r="12.2"/>
			<g>
				<path class="st0" d="M79.4,23.6l-1.8-1c-1.2,1.4-2.6,2.6-4.2,3.5l3.4,2c2.6,1.5,4.3,4.3,4.3,7.4v34c0,3-1.6,5.8-4.3,7.4
					l-29.5,17C46,94.7,44.5,95,43,95s-2.9-0.4-4.3-1.1l-29.5-17c-2.6-1.5-4.3-4.3-4.3-7.4v-34c0-3,1.6-5.8,4.3-7.4l29.7-17
					c1.3-0.8,2.8-1.1,4.3-1.1s2.9,0.4,4.3,1.1l1.9,1.1c0-1.9,0.4-3.7,1-5.4l-0.5-0.2c-2.1-1.2-4.4-1.8-6.8-1.8s-4.8,0.6-6.8,1.8
					l-29.5,17C2.6,26,0,30.6,0,35.5v34c0,4.9,2.6,9.4,6.8,11.9l29.5,17c2.1,1.2,4.4,1.8,6.8,1.8s4.8-0.6,6.8-1.8l29.5-17
					c4.2-2.4,6.8-7,6.8-11.9v-34C86.3,30.6,83.6,26.1,79.4,23.6z"/>
			</g>
		</g>
		<g>
			<path class="st0" d="M67.4,18.9h-2.1v-8.6c0-1,0-1.8,0.1-2.4c-0.1,0.1-0.3,0.3-0.5,0.5s-0.9,0.7-2,1.7l-1.1-1.4l3.9-3.1h1.8v13.3
				C67.5,18.9,67.4,18.9,67.4,18.9z"/>
		</g>
	</g>
	<path class="st0" d="M74.6,55.9c-0.1-0.5-0.4-0.8-0.8-1.1c-0.4-0.2-0.9-0.3-1.3-0.2l-15,4l-4-2.3v-7.8l4-2.3l15,4
		c0.8,0.2,1.9-0.3,2.2-1.2c0.2-0.9-0.3-1.9-1.2-2.1l-11.7-3.1L73,37.3c0.8-0.5,1.1-1.5,0.6-2.4c-0.5-0.8-1.6-1.1-2.4-0.6l-11.3,6.5
		L63,29.1c0.2-0.9-0.3-1.9-1.2-2.1c-0.9-0.3-1.9,0.3-2.1,1.2l-4,15l-4,2.3l-6.8-3.9V37l11-11c0.3-0.3,0.5-0.8,0.5-1.2
		c0-0.5-0.2-0.9-0.5-1.2s-0.8-0.5-1.2-0.5l0,0c-0.5,0-0.9,0.2-1.2,0.5l-8.6,8.5v-13c0-1-0.8-1.7-1.7-1.7c-1,0-1.7,0.8-1.7,1.7v13
		L33,23.6c-0.7-0.7-1.8-0.7-2.5,0s-0.7,1.8,0,2.5l11,11v4.6l-6.8,3.9l-4-2.3l-4-15c-0.3-0.9-1.2-1.5-2.1-1.2
		c-0.4,0.1-0.8,0.4-1.1,0.8c-0.2,0.4-0.3,0.9-0.2,1.3l3.1,11.7l-11.2-6.5c-0.4-0.2-0.9-0.3-1.3-0.2c-0.5,0.1-0.8,0.4-1.1,0.8
		c-0.2,0.4-0.3,0.9-0.2,1.3c0.1,0.5,0.4,0.8,0.8,1.1l11.2,6.5l-11.7,3c-0.4,0.1-0.8,0.4-1.1,0.8c-0.2,0.4-0.3,0.9-0.2,1.3
		c0.2,0.8,0.9,1.3,1.7,1.3c0.2,0,0.3,0,0.5-0.1l15-4l4,2.3v7.9l-4,2.3l-15-4c-0.9-0.2-1.9,0.3-2.1,1.2c-0.3,1,0.2,1.9,1.2,2.2
		l11.7,3.1l-11.2,6.5c-0.8,0.5-1.1,1.6-0.6,2.4s1.6,1.1,2.4,0.6l11.2-6.5l-3.1,11.7c-0.2,0.9,0.3,1.9,1.2,2.1
		c0.8,0.3,1.9-0.3,2.2-1.2l4-15l4-2.3l6.8,3.9V68l-11,11c-0.3,0.3-0.5,0.8-0.5,1.2c0,0.5,0.2,0.9,0.5,1.2c0.7,0.7,1.8,0.7,2.5,0
		l8.5-8.5v13c0,1,0.8,1.7,1.7,1.7s1.7-0.8,1.7-1.7v-13l8.5,8.5c0.7,0.7,1.8,0.7,2.5,0c0.3-0.3,0.5-0.8,0.5-1.2
		c0-0.5-0.2-0.9-0.5-1.2l-11-11v-4.6l6.8-3.9l4,2.3l4,15c0.2,0.8,0.9,1.3,1.7,1.3c0.1,0,0.3,0,0.5-0.1c0.5-0.1,0.8-0.4,1.1-0.8
		c0.2-0.4,0.3-0.9,0.2-1.3l-3.3-11.7l11.2,6.5c0.8,0.5,1.9,0.2,2.4-0.6c0.5-0.8,0.2-1.9-0.6-2.4l-11.2-6.5l11.7-3.1
		c0.4-0.1,0.8-0.4,1.1-0.8C74.6,56.9,74.7,56.4,74.6,55.9z M53.9,24L53.9,24L53.9,24L53.9,24z M49.6,57.1l-5.7,3.4
		c-0.5,0.3-1.1,0.3-1.5,0l-5.8-3.4c-0.5-0.3-0.8-0.8-0.8-1.3v-6.6c0-0.5,0.3-1,0.8-1.3l5.8-3.3c0.5-0.3,1.1-0.3,1.5,0l5.8,3.3
		c0.5,0.3,0.8,0.8,0.8,1.3v6.6C50.4,56.4,50.1,56.9,49.6,57.1z"/>
</g>
</svg>
