<?xml version="1.0" encoding="utf-8"?>
<!-- Generator: Adobe Illustrator 21.1.0, SVG Export Plug-In . SVG Version: 6.00 Build 0)  -->
<svg version="1.1" id="Layer_1" xmlns="http://www.w3.org/2000/svg" xmlns:xlink="http://www.w3.org/1999/xlink" x="0px" y="0px"
	 viewBox="0 0 42.2 35.5" style="enable-background:new 0 0 42.2 35.5;" xml:space="preserve">
<style type="text/css">
	.st0{fill:#FFFFFF;}
</style>
<g>
	<path class="st0" d="M40,4.4H2.2C1,4.4,0,3.4,0,2.2v0C0,1,1,0,2.2,0H40c1.2,0,2.2,1,2.2,2.2v0C42.2,3.4,41.2,4.4,40,4.4z"/>
	<path class="st0" d="M31,19.9H2.2C1,19.9,0,19,0,17.8v0c0-1.2,1-2.2,2.2-2.2H31c1.2,0,2.2,1,2.2,2.2v0C33.2,19,32.2,19.9,31,19.9z"
		/>
	<path class="st0" d="M40,35.5H2.2c-1.2,0-2.2-1-2.2-2.2v0c0-1.2,1-2.2,2.2-2.2H40c1.2,0,2.2,1,2.2,2.2v0
		C42.2,34.5,41.2,35.5,40,35.5z"/>
</g>
</svg>
