<?xml version="1.0" encoding="utf-8"?>
<!-- Generator: Adobe Illustrator 21.1.0, SVG Export Plug-In . SVG Version: 6.00 Build 0)  -->
<svg version="1.1" id="Layer_1" xmlns="http://www.w3.org/2000/svg" xmlns:xlink="http://www.w3.org/1999/xlink" x="0px" y="0px"
	 viewBox="0 0 94.3 92.1" style="enable-background:new 0 0 94.3 92.1;" xml:space="preserve">
<style type="text/css">
	.st0{fill:#004F7E;}
</style>
<g>
	<path class="st0" d="M50.9,1.4c-2.2-1.9-5.5-1.9-7.7,0L1.8,39.2c-2.3,2.2-2.5,5.7-0.3,8.1c2.2,2.3,5.7,2.5,8.1,0.3L47,13.3
		l37.6,34.2c1.1,1,2.5,1.5,3.9,1.5c1.6,0,3.1-0.6,4.2-1.8c2.2-2.3,1.9-6-0.3-8.1L50.9,1.4z"/>
	<path class="st0" d="M13.3,48.5l6.6,36c0.8,4.4,4.6,7.6,9,7.6h36.8c4.5,0,8.2-3.2,9-7.6l6.6-36L47,18.2L13.3,48.5z"/>
</g>
</svg>
