<?xml version="1.0" encoding="utf-8"?>
<!-- Generator: Adobe Illustrator 21.1.0, SVG Export Plug-In . SVG Version: 6.00 Build 0)  -->
<svg version="1.1" id="Layer_1" xmlns="http://www.w3.org/2000/svg" xmlns:xlink="http://www.w3.org/1999/xlink" x="0px" y="0px"
	 viewBox="0 0 62.5 23.2" style="enable-background:new 0 0 62.5 23.2;" xml:space="preserve">
<style type="text/css">
	.st0{fill:#DCF2FE;}
	.st1{fill:#00A2FF;}
</style>
<g>
	<g>
		<circle class="st0" cx="38.3" cy="20.3" r="2.9"/>
		<circle class="st0" cx="11.3" cy="20.3" r="2.9"/>
		<path class="st0" d="M56.1,10.4l-3,0.5l1.9,11.5h5.7C56.1,17.4,56,12.2,56.1,10.4z"/>
		<path class="st0" d="M50.6,14.7v1.1c0,1-0.3,1.9-0.7,2.7l-0.5,0.9c-0.1,0.2-0.2,0.3-0.3,0.4h4.5l-0.7-4.2L50.6,14.7z"/>
		<path class="st0" d="M49.6,12.6c0-0.9-0.7-1.6-1.5-1.7L37.8,10l-4.4-6.9c-0.5-0.8-1-1.1-1.6-1.1h-7.1C23.8,2,23,2.8,23,3.7v6H1
			v6.2h4.7c0.3,0,0.5,0.2,0.5,0.5v3.5h1.3c0.2-1.9,1.9-3.4,3.9-3.4s3.6,1.5,3.9,3.4h19.2c0.2-1.9,1.9-3.4,3.9-3.4s3.6,1.5,3.9,3.4h4
			H47c0.7,0,1.3-0.4,1.6-0.9L49,18c0.4-0.7,0.6-1.5,0.6-2.2V12.6z M26.1,9.7V5h4.7c0.5,0,0.9,0.3,1.1,0.8l1.4,4H26.1z"/>
	</g>
	<g>
		<path class="st1" d="M57.2,8.9c0-0.2,0-0.3-0.1-0.4c-0.1-0.1-0.3-0.2-0.4-0.1l-4.1,0.6c-0.1,0-0.3,0.1-0.3,0.2
			c-0.1,0.1-0.1,0.2-0.1,0.4l0.6,4l-2.1-0.8v-1c0-1.4-1-2.6-2.4-2.7l-9.8-0.8l-4.2-6.5C33.8,0.9,33,0,31.8,0h-7.1
			C23.2,0,22,1.2,22,2.7v5H0v8.2h5.7c0.3,0,0.5-0.2,0.5-0.5s-0.2-0.5-0.5-0.5H1V8.7h22v-6C23,1.8,23.8,1,24.7,1h7.1
			c0.6,0,1.1,0.3,1.6,1.1L37.8,9l10.3,0.9c0.9,0.1,1.5,0.8,1.5,1.7v3.2c0,0.8-0.2,1.6-0.6,2.2l-0.5,0.9c-0.3,0.6-0.9,0.9-1.6,0.9
			h-0.8h-4c-0.2-1.9-1.9-3.4-3.9-3.4s-3.6,1.5-3.9,3.4H15.2c-0.2-1.9-1.9-3.4-3.9-3.4s-3.6,1.5-3.9,3.4H2.9c-0.3,0-0.5,0.2-0.5,0.5
			s0.2,0.5,0.5,0.5h4.5c0.2,1.9,1.9,3.4,3.9,3.4s3.6-1.5,3.9-3.4h19.2c0.2,1.9,1.9,3.4,3.9,3.4s3.6-1.5,3.9-3.4h4H47h6.8l0.4,2.1
			c0,0.2,0.2,0.4,0.5,0.4H62c0.2,0,0.4-0.1,0.5-0.3c0.1-0.2,0-0.4-0.1-0.5C56.1,15.6,57.2,8.9,57.2,8.9z M11.3,22.2
			c-1.6,0-2.9-1.3-2.9-2.9s1.3-2.9,2.9-2.9s2.9,1.3,2.9,2.9S12.9,22.2,11.3,22.2z M38.2,22.2c-1.6,0-2.9-1.3-2.9-2.9
			s1.3-2.9,2.9-2.9s2.9,1.3,2.9,2.9S39.9,22.2,38.2,22.2z M49.1,18.8c0.1-0.1,0.2-0.3,0.3-0.4l0.5-0.9c0.5-0.8,0.7-1.8,0.7-2.7v-1.1
			l2.3,0.9l0.7,4.2H49.1z M55,21.4L53.2,9.8l3-0.5c-0.1,1.8,0,7,4.7,12H55z"/>
		<path class="st1" d="M33.8,9.7c0.2,0,0.3-0.1,0.4-0.2s0.1-0.3,0.1-0.5l-1.6-4.7c-0.3-0.9-1.1-1.4-2-1.4h-5.2
			c-0.3,0-0.5,0.2-0.5,0.5v5.8c0,0.3,0.2,0.5,0.5,0.5H33.8z M26.1,4h4.7c0.5,0,0.9,0.3,1.1,0.8l1.4,4h-7.1V4z"/>
	</g>
</g>
</svg>
