<?xml version="1.0" encoding="utf-8"?>
<!-- Generator: Adobe Illustrator 21.0.2, SVG Export Plug-In . SVG Version: 6.00 Build 0)  -->
<svg version="1.1"
	 id="Layer_1" xmlns:cc="http://creativecommons.org/ns#" xmlns:dc="http://purl.org/dc/elements/1.1/" xmlns:inkscape="http://www.inkscape.org/namespaces/inkscape" xmlns:rdf="http://www.w3.org/1999/02/22-rdf-syntax-ns#" xmlns:sodipodi="http://sodipodi.sourceforge.net/DTD/sodipodi-0.dtd" xmlns:svg="http://www.w3.org/2000/svg"
	 xmlns="http://www.w3.org/2000/svg" xmlns:xlink="http://www.w3.org/1999/xlink" x="0px" y="0px" viewBox="0 0 100 102.2"
	 style="enable-background:new 0 0 100 102.2;" xml:space="preserve">
<style type="text/css">
	.st0{fill:#FFFFFF;}
</style>
<g transform="translate(0,-952.36218)">
	<path class="st0" d="M64,961.4c-6.3,0-11.6,4.3-13.3,10.1l-14.2-6.1c-0.4-0.1-0.6,0-0.8,0l-28,12C7.2,977.6,7,978,7,978.3v64
		c0,0.7,0.8,1.2,1.4,0.9l27.6-11.8l27.6,11.8c0.3,0.1,0.6,0.1,0.8,0l28-12c0.4-0.2,0.6-0.5,0.6-0.9v-64c0-0.7-0.8-1.2-1.4-0.9
		l-14.2,6.1C75.6,965.6,70.3,961.4,64,961.4L64,961.4z M64,963.4c6.6,0,12,5.5,12,12.4c0,1.5-0.5,3.6-1,5L64,1004l-11-23.3
		c-0.5-1.4-1-3.5-1-5C52,968.9,57.3,963.4,64,963.4z M91,967.9v61.8l-26,11.1v-34.2c4-8.4,7.9-16.7,11.9-25.1
		c0.6-1.6,1.1-3.8,1.1-5.7c0-0.8-0.1-1.5-0.2-2.2L91,967.9z M35,967.9v61.8l-26,11.2V979L35,967.9z M37,967.9l13.2,5.6
		c-0.1,0.7-0.2,1.5-0.2,2.2c0,1.9,0.5,4.1,1.1,5.7c4,8.4,7.9,16.7,11.9,25.1v34.2l-26-11.1V967.9z M64,970.4c-2.7,0-5,2.3-5,5
		s2.3,5,5,5c2.7,0,5-2.3,5-5S66.7,970.4,64,970.4z M64,972.4c1.7,0,3,1.3,3,3s-1.3,3-3,3c-1.7,0-3-1.3-3-3S62.3,972.4,64,972.4z"/>
</g>
</svg>
