<?xml version="1.0" encoding="utf-8"?>
<!-- Generator: Adobe Illustrator 21.1.0, SVG Export Plug-In . SVG Version: 6.00 Build 0)  -->
<svg version="1.1" id="Layer_1" xmlns="http://www.w3.org/2000/svg" xmlns:xlink="http://www.w3.org/1999/xlink" x="0px" y="0px"
	 viewBox="0 0 62.7 62.7" style="enable-background:new 0 0 62.7 62.7;" xml:space="preserve">
<style type="text/css">
	.st0{fill:#00A2FF;}
</style>
<path class="st0" d="M61.5,55.9L46.7,41.1C54,31,53.2,16.7,44.1,7.6C34-2.5,17.6-2.5,7.6,7.6C-2.5,17.6-2.5,34,7.6,44.1
	c5,5,11.7,7.6,18.3,7.6c5.4,0,10.7-1.7,15.2-5l14.8,14.8c0.8,0.8,1.8,1.2,2.8,1.2s2-0.4,2.8-1.2C63.1,60,63.1,57.4,61.5,55.9z
	 M38.5,38.5c-3.4,3.4-7.8,5.2-12.6,5.2s-9.3-1.8-12.6-5.2S8,30.6,8,25.8s1.8-9.3,5.2-12.6S21.1,8,25.8,8s9.3,1.8,12.6,5.2
	C45.4,20.2,45.4,31.5,38.5,38.5z"/>
</svg>
