<?xml version="1.0" encoding="utf-8"?>
<!-- Generator: Adobe Illustrator 21.1.0, SVG Export Plug-In . SVG Version: 6.00 Build 0)  -->
<svg version="1.1" id="Layer_1" xmlns="http://www.w3.org/2000/svg" xmlns:xlink="http://www.w3.org/1999/xlink" x="0px" y="0px"
	 viewBox="0 0 77.9 78.1" style="enable-background:new 0 0 77.9 78.1;" xml:space="preserve">
<style type="text/css">
	.st0{fill:#FFFFFF;}
	.st1{fill:#DCF2FE;}
	.st2{fill:#00A2FF;}
</style>
<circle class="st0" cx="39" cy="39.1" r="39"/>
<g>
	<g>
		<path class="st1" d="M16.5,43.3v3.6l4.1-1.5c0-0.3-0.1-0.6-0.1-0.9c0-0.9,0.2-1.7,0.5-2.5L16.5,43.3z"/>
		<circle class="st1" cx="27.9" cy="44.6" r="6.3"/>
		<path class="st1" d="M10.5,37.5c0.1,1.4,0.4,3.3,0.5,4.1h2l-1.1-5.4c-0.1-0.2-0.8-1.4-1.9-1.3L9.4,36
			C9.9,36.2,10.4,36.7,10.5,37.5z"/>
		<polygon class="st1" points="7.6,51 15.5,49.9 15.5,47.6 15.5,43 15.5,42.6 7.6,42.6 		"/>
		<path class="st1" d="M63.3,34.5l-4,0.6l0.9,5.5l0,0l1.5,9.2h7.6C63.1,43.4,63.1,36.6,63.3,34.5z"/>
		<path class="st1" d="M53.5,38.7c-0.1-1.4-0.9-2.2-2.5-2.4l-10-1.6c-0.2,0-0.4-0.2-0.4-0.4l-1-6.2c-0.1-0.2-0.2-0.4-0.3-0.7
			c-0.3-0.9-0.5-1.4-1-1.4l-7.4-0.8c-1.7,0-1.9,0.8-1.9,1.6l-0.7,6.4c0.8,0,1.7,0,2.6,0.3c2.9,0.8,5.2,3.1,6.8,7v0.1v0.1l0,0
			c0,0.2-0.1,0.3-0.3,0.4l-2.6,1.3c0.2,0.7,0.3,1.4,0.3,2.1c0,0.4,0,0.9-0.1,1.3h7.7c0.5-2.7,1.6-4.6,3.5-5.8
			C48.9,38.2,52.1,38.5,53.5,38.7z M32.1,30.5C32,30.5,32,30.5,32.1,30.5l0.1-2.6l4.7,0.5l0.4,3.8C36,31.6,33.9,30.5,32.1,30.5z"/>
		<circle class="st1" cx="51.1" cy="47.1" r="3.8"/>
	</g>
	<g>
		<path class="st2" d="M64.3,32.9c0-0.2,0-0.3-0.1-0.4c-0.1-0.1-0.3-0.2-0.4-0.1l-5.2,0.7c-0.1,0-0.3,0.1-0.3,0.2
			c-0.1,0.1-0.1,0.2-0.1,0.4l0.9,5.3l-4.6-1.1c0-2-1.2-3.3-3.3-3.6l-9.6-1.5l-0.9-6v-0.1c-0.1-0.2-0.2-0.4-0.3-0.7
			c-0.4-0.9-0.8-2.1-2-2.1l0,0L31,23.1c-2.4,0-2.9,1.4-2.9,2.6l-0.7,6.4c0,0.1,0,0.1,0,0.2c-3.1,0.5-5.5,2.3-5.7,2.4
			c-0.2,0.2-0.3,0.5-0.1,0.7c0.2,0.2,0.5,0.3,0.7,0.1c0,0,4.2-3.1,8.4-2c2.6,0.7,4.6,2.9,6.2,6.4c0.1,0.2,0.3,0.3,0.5,0.3
			c0.1,0,0.1,0,0.2,0c0.3-0.1,0.4-0.4,0.3-0.7c-1.6-3.9-3.9-6.2-6.8-7c-1.1-0.4-1.9-0.4-2.8-0.4l0.7-6.4c0-0.8,0.2-1.6,1.9-1.6
			l7.4,0.8c0.5,0,0.7,0.5,1,1.4c0.1,0.2,0.2,0.5,0.3,0.7l1,6.3c0,0.2,0.2,0.4,0.4,0.4l10,1.6c1.6,0.2,2.4,1,2.5,2.4
			c-1.3-0.2-4.6-0.5-7.2,1.2c-1.8,1.2-3,3.2-3.5,5.8h-7.7c0.1-0.4,0.1-0.8,0.1-1.3c0-4.1-3.3-7.3-7.3-7.3c-2.7,0-5,1.4-6.3,3.6
			l-5.1,1.5V41c0-0.3-0.2-0.5-0.5-0.5h-1.9l-1.2-5.7v-0.1c-0.4-0.8-1.6-2.2-3.3-1.9c-0.2,0-0.3,0.1-0.4,0.3l-0.9,1.7
			c-0.1,0.1-0.1,0.3,0,0.4c0,0.1,0.2,0.2,0.3,0.3c0,0,0.8,0.4,0.9,1c0.1,1.3,0.4,3.1,0.5,4H7.1c-0.3,0-0.5,0.2-0.5,0.5v9.5
			c0,0.1,0.1,0.3,0.2,0.4C6.9,51,7,51,7.1,51c0,0,0,0,0.1,0l8.8-1.3c0.2,0,0.4-0.2,0.4-0.5v-2.3l4.3-1.5c0.8,3.1,3.7,5.4,7.1,5.4
			c3.3,0,6-2.1,7-5.1h8.4c0.2,0,0.5-0.2,0.5-0.4c0.4-2.6,1.4-4.5,3.1-5.6c3-2,7-1,7.1-1l5.4,1.3l0.9,5.5h-4.3
			c-0.3-2.4-2.3-4.3-4.8-4.3c-2.7,0-4.8,2.2-4.8,4.8s2.2,4.8,4.8,4.8c2.5,0,4.5-1.9,4.8-4.3h4.5l0.5,2.8c0,0.2,0.2,0.4,0.5,0.4h9.3
			c0.2,0,0.4-0.1,0.5-0.3s0-0.4-0.1-0.5C63,41.4,64.3,33,64.3,32.9z M9.4,34.8l0.6-1.1c1.2-0.1,1.8,1.1,1.9,1.3l1.1,5.4h-2
			c-0.1-0.8-0.4-2.7-0.5-4.1C10.4,35.6,9.9,35.1,9.4,34.8z M15.4,41.9v4.7v2.2L7.6,50v-8.4h7.8V41.9z M20.5,43.5
			c0,0.3,0,0.6,0.1,0.9l-4.1,1.5v-3.6L21,41C20.7,41.7,20.5,42.6,20.5,43.5z M27.8,49.8c-3.5,0-6.3-2.8-6.3-6.3s2.8-6.3,6.3-6.3
			s6.3,2.8,6.3,6.3C34.2,47,31.3,49.8,27.8,49.8z M51,49.8c-2.1,0-3.8-1.7-3.8-3.8s1.7-3.8,3.8-3.8s3.8,1.7,3.8,3.8
			S53.1,49.8,51,49.8z M61.6,48.7l-1.5-9.2l0,0L59.2,34l4-0.6c-0.2,2.1-0.2,8.9,6,15.3C69.2,48.7,61.6,48.7,61.6,48.7z"/>
		<path class="st2" d="M37.8,26.8c0-0.2-0.2-0.4-0.4-0.4l-5.6-0.5c-0.1,0-0.3,0-0.4,0.1s-0.2,0.2-0.2,0.3L31,30
			c0,0.2,0.1,0.3,0.2,0.4s0.3,0.1,0.4,0.1c2.3-0.4,6,2,6,2c0.1,0.1,0.2,0.1,0.3,0.1s0.2,0,0.3-0.1c0.2-0.1,0.3-0.3,0.2-0.5
			L37.8,26.8z M32,29.4L32,29.4l0.1-2.6l4.7,0.5l0.4,3.8C36,30.5,33.9,29.4,32,29.4z"/>
	</g>
</g>
</svg>
