<?xml version="1.0" encoding="utf-8"?>
<!-- Generator: Adobe Illustrator 21.1.0, SVG Export Plug-In . SVG Version: 6.00 Build 0)  -->
<svg version="1.1" id="Layer_1" xmlns="http://www.w3.org/2000/svg" xmlns:xlink="http://www.w3.org/1999/xlink" x="0px" y="0px"
	 viewBox="0 0 31.1 31.1" style="enable-background:new 0 0 31.1 31.1;" xml:space="preserve">
<style type="text/css">
	.st0{fill:#FFFFFF;}
</style>
<path class="st0" d="M18.6,15.5L30.4,3.7c0.9-0.9,0.9-2.2,0-3.1c-0.9-0.9-2.2-0.9-3.1,0L15.5,12.5L3.7,0.6c-0.9-0.9-2.2-0.9-3.1,0
	c-0.9,0.9-0.9,2.2,0,3.1l11.8,11.8L0.6,27.4c-0.9,0.9-0.9,2.2,0,3.1v0c0.9,0.9,2.2,0.9,3.1,0l11.8-11.8l11.8,11.8
	c0.9,0.9,2.2,0.9,3.1,0v0c0.9-0.9,0.9-2.2,0-3.1L18.6,15.5z"/>
</svg>
