<?xml version="1.0" encoding="utf-8"?>
<!-- Generator: Adobe Illustrator 21.1.0, SVG Export Plug-In . SVG Version: 6.00 Build 0)  -->
<svg version="1.1" id="Layer_1" xmlns="http://www.w3.org/2000/svg" xmlns:xlink="http://www.w3.org/1999/xlink" x="0px" y="0px"
	 viewBox="0 0 510 510" style="enable-background:new 0 0 510 510;" xml:space="preserve">
<style type="text/css">
	.st0{fill:#DCF2FE;}
	.st1{fill:#E41D36;}
	.st2{fill:#00A2FF;}
	.st3{fill:#FFFFFF;}
</style>
<g>
	<path class="st0" d="M441,510H69c-38.1,0-69-30.9-69-69V69C0,30.9,30.9,0,69,0H441c38.1,0,69,30.9,69,69V441
		C510,479.1,479.1,510,441,510z"/>
	<g>
		<g>
			<g>
				<g>
					<circle class="st1" cx="338.6" cy="112.9" r="45.7"/>
					<path class="st2" d="M381.4,172.5l-6.4-3.7l-21.7-12.4c-4.5,1.5-9.4,2.2-14.6,2.2c-22.1,0-40.9-15.7-45-36.7l-24.4-14.2
						c-4.5-1.9-9-3-13.9-3c-5.6,0-11.2,1.1-16.1,4.1l-31.9,18.4l-82.9,47.6c-6.4,4.9-10.5,11.6-12,18.7v140.6
						c1.5,7.5,5.6,14.2,11.6,18.7l115.1,66.7c4.9,2.2,10.1,3.7,15.4,3.7c5.2,0,10.1-1.1,15-3.4l115.1-66.7
						c7.9-6,12.7-15.4,12.7-25.5V200.3C397.5,188.6,391.1,178.1,381.4,172.5z"/>
					<g>
						<path class="st3" d="M391.1,155.6l-6.7-3.7c-4.5,5.2-9.7,9.7-15.7,13.1l12.7,7.5c9.7,5.6,16.1,16.1,16.1,27.7v127.5
							c0,11.2-6,21.7-16.1,27.7l-110.6,63.7c-4.9,3-10.5,4.1-16.1,4.1c-5.6,0-10.9-1.5-16.1-4.1l-110.6-63.7
							c-9.7-5.6-16.1-16.1-16.1-27.7V200.3c0-11.2,6-21.7,16.1-27.7l111.4-63.7c4.9-3,10.5-4.1,16.1-4.1c5.6,0,10.9,1.5,16.1,4.1
							l7.1,4.1c0-7.1,1.5-13.9,3.7-20.2l-1.9-0.7c-7.9-4.5-16.5-6.7-25.5-6.7s-18,2.2-25.5,6.7l-110.6,63.7
							c-15.7,9-25.5,26.2-25.5,44.6v127.5c0,18.4,9.7,35.2,25.5,44.6l110.6,63.7c7.9,4.5,16.5,6.7,25.5,6.7c9,0,18-2.2,25.5-6.7
							l110.6-63.7c15.7-9,25.5-26.2,25.5-44.6V200.3C417,181.9,406.9,165,391.1,155.6z"/>
					</g>
				</g>
				<g>
					<path class="st3" d="M346.1,138h-7.9v-32.2c0-3.7,0-6.7,0.4-9c-0.4,0.4-1.1,1.1-1.9,1.9c-0.7,0.7-3.4,2.6-7.5,6.4l-4.1-5.2
						l14.6-11.6h6.7V138C346.5,138,346.1,138,346.1,138z"/>
				</g>
			</g>
			<path class="st3" d="M373.1,276.7c-0.4-1.9-1.5-3-3-4.1c-1.5-0.7-3.4-1.1-4.9-0.7l-56.2,15l-15-8.6V249l15-8.6l56.2,15
				c3,0.7,7.1-1.1,8.2-4.5c0.7-3.4-1.1-7.1-4.5-7.9l-43.9-11.6l42-24.4c3-1.9,4.1-5.6,2.2-9c-1.9-3-6-4.1-9-2.2L318,220.1l11.6-43.9
				c0.7-3.4-1.1-7.1-4.5-7.9c-3.4-1.1-7.1,1.1-7.9,4.5l-15,56.2l-15,8.6l-25.5-14.6v-17.2l41.2-41.2c1.1-1.1,1.9-3,1.9-4.5
				c0-1.9-0.7-3.4-1.9-4.5c-1.1-1.1-3-1.9-4.5-1.9l0,0c-1.9,0-3.4,0.7-4.5,1.9l-32.2,31.9v-48.7c0-3.7-3-6.4-6.4-6.4
				c-3.7,0-6.4,3-6.4,6.4v48.7l-31.9-31.9c-2.6-2.6-6.7-2.6-9.4,0c-2.6,2.6-2.6,6.7,0,9.4l41.2,41.2v17.2l-25.5,14.6l-15-8.6
				l-15-56.2c-1.1-3.4-4.5-5.6-7.9-4.5c-1.5,0.4-3,1.5-4.1,3c-0.7,1.5-1.1,3.4-0.7,4.9l11.6,43.9l-42-24.4c-1.5-0.7-3.4-1.1-4.9-0.7
				c-1.9,0.4-3,1.5-4.1,3c-0.7,1.5-1.1,3.4-0.7,4.9c0.4,1.9,1.5,3,3,4.1l42,24.4L141.8,243c-1.5,0.4-3,1.5-4.1,3
				c-0.7,1.5-1.1,3.4-0.7,4.9c0.7,3,3.4,4.9,6.4,4.9c0.7,0,1.1,0,1.9-0.4l56.2-15l15,8.6v29.6l-15,8.6l-56.2-15
				c-3.4-0.7-7.1,1.1-7.9,4.5c-1.1,3.7,0.7,7.1,4.5,8.2l43.9,11.6l-42,24.4c-3,1.9-4.1,6-2.2,9c1.9,3,6,4.1,9,2.2l42-24.4
				l-11.6,43.9c-0.7,3.4,1.1,7.1,4.5,7.9c3,1.1,7.1-1.1,8.2-4.5l15-56.2l15-8.6l25.5,14.6v17.2l-41.2,41.2c-1.1,1.1-1.9,3-1.9,4.5
				c0,1.9,0.7,3.4,1.9,4.5c2.6,2.6,6.7,2.6,9.4,0l31.9-31.9v48.7c0,3.7,3,6.4,6.4,6.4c3.4,0,6.4-3,6.4-6.4v-48.7l31.9,31.9
				c2.6,2.6,6.7,2.6,9.4,0c1.1-1.1,1.9-3,1.9-4.5c0-1.9-0.7-3.4-1.9-4.5l-41.2-41.2v-17.2l25.5-14.6l15,8.6l15,56.2
				c0.7,3,3.4,4.9,6.4,4.9c0.4,0,1.1,0,1.9-0.4c1.9-0.4,3-1.5,4.1-3c0.7-1.5,1.1-3.4,0.7-4.9L318,307.9l42,24.4c3,1.9,7.1,0.7,9-2.2
				c1.9-3,0.7-7.1-2.2-9l-42-24.4l43.9-11.6c1.5-0.4,3-1.5,4.1-3C373.1,280.5,373.5,278.6,373.1,276.7z M295.5,157.1L295.5,157.1
				L295.5,157.1L295.5,157.1z M279.4,281.2L258,294c-1.9,1.1-4.1,1.1-5.6,0l-21.7-12.7c-1.9-1.1-3-3-3-4.9v-24.7
				c0-1.9,1.1-3.7,3-4.9l21.7-12.4c1.9-1.1,4.1-1.1,5.6,0l21.7,12.4c1.9,1.1,3,3,3,4.9v24.7C282.4,278.6,281.2,280.5,279.4,281.2z"
				/>
		</g>
	</g>
</g>
</svg>
