<?xml version="1.0" encoding="utf-8"?>
<!-- Generator: Adobe Illustrator 21.1.0, SVG Export Plug-In . SVG Version: 6.00 Build 0)  -->
<svg version="1.1" id="Layer_1" xmlns="http://www.w3.org/2000/svg" xmlns:xlink="http://www.w3.org/1999/xlink" x="0px" y="0px"
	 viewBox="0 0 75.9 26.7" style="enable-background:new 0 0 75.9 26.7;" xml:space="preserve">
<style type="text/css">
	.st0{fill:#DCF2FE;}
	.st1{fill:#00A2FF;}
</style>
<g>
	<g>
		<g>
			<circle class="st0" cx="24.5" cy="23.8" r="2.9"/>
			<circle class="st0" cx="51.6" cy="23.8" r="2.9"/>
			<circle class="st0" cx="14.6" cy="23.8" r="2.9"/>
			<path class="st0" d="M69.5,13.9l-3,0.5l1.9,11.5h5.7C69.5,20.9,69.4,15.7,69.5,13.9z"/>
			<path class="st0" d="M63,16.1c0-0.9-0.7-1.6-1.5-1.7l-7.6-0.9c-0.2,0-0.3-0.1-0.4-0.3l-3.4-7.7c-0.3-0.6-0.9-1-1.5-1H41
				c-0.9,0-1.7,0.8-1.7,1.7v13.8c0,0.3-0.2,0.5-0.5,0.5h-8.6v2.9h17.6c0.2-1.9,1.9-3.4,3.9-3.4s3.6,1.5,3.9,3.4h4h0.8
				c0.7,0,1.3-0.4,1.6-0.9l0.5-0.9c0.4-0.7,0.6-1.5,0.6-2.2V16.1z M42.1,12.1V7.4h4.7c0.5,0,0.9,0.3,1.1,0.8l1.4,4H42.1z"/>
			<path class="st0" d="M64,18.2v1.1c0,1-0.3,1.9-0.7,2.7l-0.5,0.9c-0.1,0.2-0.2,0.3-0.3,0.4H67l-0.7-4.2L64,18.2z"/>
		</g>
		<path class="st0" d="M1.3,2.5C1.5,2.2,1.9,2,2.3,2h32.1v13.8H5l-4-12.2C1,3.3,1,2.9,1.3,2.5z"/>
	</g>
	<g>
		<path class="st1" d="M75.7,25c-6.2-5.9-5.2-12.5-5.1-12.6c0-0.2,0-0.3-0.1-0.4c-0.1-0.1-0.3-0.2-0.4-0.1l-4.1,0.6
			c-0.1,0-0.3,0.1-0.3,0.2c-0.1,0.1-0.1,0.2-0.1,0.4l0.6,4L64,16.1v-1c0-1.4-1-2.6-2.4-2.7l-7.3-0.8L51,4.1c-0.4-1-1.4-1.6-2.5-1.6
			h-7.6c-1.5,0-2.7,1.2-2.7,2.7v13.3h-8.6c-0.3,0-0.5,0.2-0.5,0.5s0.2,0.5,0.5,0.5h9.1c0.3,0,0.5-0.2,0.5-0.5V5.2
			c0-0.9,0.8-1.7,1.7-1.7h7.6c0.7,0,1.3,0.4,1.5,1l3.4,7.7c0.1,0.2,0.2,0.3,0.4,0.3l7.6,0.9c0.9,0.1,1.5,0.8,1.5,1.7v3.2
			c0,0.8-0.2,1.6-0.6,2.2l-0.5,0.9c-0.3,0.6-0.9,0.9-1.6,0.9h-0.8h-4c-0.2-1.9-1.9-3.4-3.9-3.4s-3.6,1.5-3.9,3.4H28.4
			c-0.2-1.9-1.9-3.4-3.9-3.4s-3.6,1.5-3.9,3.4h-2.1c-0.2-1.9-1.9-3.4-3.9-3.4s-3.6,1.5-3.9,3.4h-3c-0.3,0-0.5,0.2-0.5,0.5
			s0.2,0.5,0.5,0.5h3c0.2,1.9,1.9,3.4,3.9,3.4s3.6-1.5,3.9-3.4h2.1c0.2,1.9,1.9,3.4,3.9,3.4s3.6-1.5,3.9-3.4h19.4
			c0.2,1.9,1.9,3.4,3.9,3.4s3.6-1.5,3.9-3.4h4h0.8h6.8l0.4,2.1c0,0.2,0.2,0.4,0.5,0.4h7.4c0.2,0,0.4-0.1,0.5-0.3
			C75.9,25.3,75.9,25.1,75.7,25z M14.6,25.7c-1.6,0-2.9-1.3-2.9-2.9s1.3-2.9,2.9-2.9s2.9,1.3,2.9,2.9S16.2,25.7,14.6,25.7z
			 M24.5,25.7c-1.6,0-2.9-1.3-2.9-2.9s1.3-2.9,2.9-2.9s2.9,1.3,2.9,2.9S26.1,25.7,24.5,25.7z M51.6,25.7c-1.6,0-2.9-1.3-2.9-2.9
			s1.3-2.9,2.9-2.9s2.9,1.3,2.9,2.9S53.2,25.7,51.6,25.7z M62.5,22.3c0.1-0.1,0.2-0.3,0.3-0.4l0.5-0.9c0.5-0.8,0.7-1.8,0.7-2.7v-1.1
			l2.3,0.9l0.7,4.2H62.5z M68.4,24.9l-1.9-11.5l3-0.5c-0.1,1.8,0,7,4.7,12H68.4z"/>
		<path class="st1" d="M10.3,18.8c0-0.3-0.2-0.5-0.5-0.5H4.7c-0.3,0-0.5,0.2-0.5,0.5s0.2,0.5,0.5,0.5h5.2
			C10.1,19.3,10.3,19.1,10.3,18.8z"/>
		<path class="st1" d="M49.9,12.1c0.2,0,0.3-0.1,0.4-0.2s0.1-0.3,0.1-0.5l-1.6-4.7c-0.3-0.9-1.1-1.4-2-1.4h-5.2
			c-0.3,0-0.5,0.2-0.5,0.5v5.8c0,0.3,0.2,0.5,0.5,0.5H49.9z M42.1,6.4h4.7c0.5,0,0.9,0.3,1.1,0.8l1.4,4h-7.1V6.4z"/>
		<path class="st1" d="M4.7,15.8h30.2c0.3,0,0.5-0.2,0.5-0.5V0.5c0-0.3-0.2-0.5-0.5-0.5H2.3C1.5,0,0.9,0.3,0.4,0.9
			C0,1.5-0.1,2.3,0.1,3l4.1,12.5C4.3,15.7,4.5,15.8,4.7,15.8z M1.2,1.5C1.5,1.2,1.9,1,2.3,1h32.1v13.8H5l-4-12.2
			C0.9,2.3,1,1.9,1.2,1.5z"/>
		<path class="st1" d="M29.7,11.3c0.3,0,0.5-0.2,0.5-0.5V5c0-0.3-0.2-0.5-0.5-0.5S29.2,4.7,29.2,5v5.8
			C29.2,11.1,29.4,11.3,29.7,11.3z"/>
		<path class="st1" d="M24.5,11.3c0.3,0,0.5-0.2,0.5-0.5V5c0-0.3-0.2-0.5-0.5-0.5S24,4.7,24,5v5.8C24,11.1,24.2,11.3,24.5,11.3z"/>
		<path class="st1" d="M19.3,11.3c0.3,0,0.5-0.2,0.5-0.5V5c0-0.3-0.2-0.5-0.5-0.5S18.8,4.7,18.8,5v5.8C18.8,11.1,19,11.3,19.3,11.3z
			"/>
		<path class="st1" d="M14.1,11.3c0.3,0,0.5-0.2,0.5-0.5V5c0-0.3-0.2-0.5-0.5-0.5S13.6,4.7,13.6,5v5.8
			C13.6,11.1,13.8,11.3,14.1,11.3z"/>
		<path class="st1" d="M8.9,11.3c0.3,0,0.5-0.2,0.5-0.5V5c0-0.3-0.2-0.5-0.5-0.5S8.4,4.7,8.4,5v5.8C8.4,11.1,8.6,11.3,8.9,11.3z"/>
	</g>
</g>
</svg>
